<svg id="visual" viewBox="0 0 900 300" width="900" height="300" xmlns="http://www.w3.org/2000/svg" xmlns:xlink="http://www.w3.org/1999/xlink" version="1.1"><rect x="0" y="0" width="900" height="300" fill="#b21bd8"></rect><path d="M0 148L82 165L164 192L245 168L327 181L409 132L491 125L573 127L655 135L736 178L818 193L900 177L900 301L818 301L736 301L655 301L573 301L491 301L409 301L327 301L245 301L164 301L82 301L0 301Z" fill="#5905bf"></path><path d="M0 182L82 161L164 159L245 190L327 181L409 173L491 199L573 187L655 215L736 212L818 213L900 168L900 301L818 301L736 301L655 301L573 301L491 301L409 301L327 301L245 301L164 301L82 301L0 301Z" fill="#433acf"></path><path d="M0 219L82 228L164 192L245 189L327 197L409 238L491 188L573 195L655 233L736 230L818 226L900 193L900 301L818 301L736 301L655 301L573 301L491 301L409 301L327 301L245 301L164 301L82 301L0 301Z" fill="#2b55da"></path><path d="M0 230L82 259L164 252L245 218L327 228L409 217L491 222L573 222L655 253L736 226L818 230L900 258L900 301L818 301L736 301L655 301L573 301L491 301L409 301L327 301L245 301L164 301L82 301L0 301Z" fill="#186be0"></path><path d="M0 253L82 261L164 249L245 248L327 258L409 276L491 247L573 266L655 263L736 270L818 279L900 279L900 301L818 301L736 301L655 301L573 301L491 301L409 301L327 301L245 301L164 301L82 301L0 301Z" fill="#227fe3"></path></svg>