<svg id="visual" viewBox="0 0 900 300" width="900" height="300" xmlns="http://www.w3.org/2000/svg" xmlns:xlink="http://www.w3.org/1999/xlink" version="1.1"><path d="M0 86L90 81L180 177L270 93L360 108L450 176L540 124L630 113L720 158L810 145L900 173L900 301L810 301L720 301L630 301L540 301L450 301L360 301L270 301L180 301L90 301L0 301Z" fill="#7c00ff"></path><path d="M0 151L90 138L180 192L270 172L360 148L450 186L540 146L630 175L720 120L810 171L900 151L900 301L810 301L720 301L630 301L540 301L450 301L360 301L270 301L180 301L90 301L0 301Z" fill="#5246ff"></path><path d="M0 226L90 200L180 178L270 191L360 180L450 161L540 230L630 163L720 191L810 177L900 220L900 301L810 301L720 301L630 301L540 301L450 301L360 301L270 301L180 301L90 301L0 301Z" fill="#2360fe"></path><path d="M0 244L90 254L180 226L270 225L360 250L450 257L540 222L630 216L720 230L810 258L900 225L900 301L810 301L720 301L630 301L540 301L450 301L360 301L270 301L180 301L90 301L0 301Z" fill="#0072f3"></path><path d="M0 235L90 282L180 269L270 247L360 232L450 242L540 241L630 277L720 264L810 287L900 259L900 301L810 301L720 301L630 301L540 301L450 301L360 301L270 301L180 301L90 301L0 301Z" fill="#227fe3"></path></svg>