<svg id="visual" viewBox="0 0 900 300" width="900" height="300" xmlns="http://www.w3.org/2000/svg" xmlns:xlink="http://www.w3.org/1999/xlink" version="1.1"><rect x="0" y="0" width="900" height="300" fill="#b21bd8"></rect><path d="M0 182L129 201L257 184L386 174L514 207L643 205L771 194L900 176L900 301L771 301L643 301L514 301L386 301L257 301L129 301L0 301Z" fill="#5905bf"></path><path d="M0 233L129 227L257 214L386 205L514 222L643 236L771 201L900 226L900 301L771 301L643 301L514 301L386 301L257 301L129 301L0 301Z" fill="#433acf"></path><path d="M0 237L129 223L257 228L386 227L514 245L643 239L771 250L900 246L900 301L771 301L643 301L514 301L386 301L257 301L129 301L0 301Z" fill="#2b55da"></path><path d="M0 246L129 251L257 260L386 265L514 242L643 261L771 267L900 242L900 301L771 301L643 301L514 301L386 301L257 301L129 301L0 301Z" fill="#186be0"></path><path d="M0 267L129 265L257 265L386 277L514 272L643 263L771 269L900 274L900 301L771 301L643 301L514 301L386 301L257 301L129 301L0 301Z" fill="#227fe3"></path></svg>