<svg id="visual" viewBox="0 0 900 300" width="900" height="300" xmlns="http://www.w3.org/2000/svg" xmlns:xlink="http://www.w3.org/1999/xlink" version="1.1"><path d="M0 85L82 85L82 79L164 79L164 94L245 94L245 64L327 64L327 46L409 46L409 118L491 118L491 94L573 94L573 58L655 58L655 130L736 130L736 85L818 85L818 112L900 112L900 112L900 0L900 0L818 0L818 0L736 0L736 0L655 0L655 0L573 0L573 0L491 0L491 0L409 0L409 0L327 0L327 0L245 0L245 0L164 0L164 0L82 0L82 0L0 0Z" fill="#227fe3"></path><path d="M0 139L82 139L82 142L164 142L164 166L245 166L245 124L327 124L327 127L409 127L409 157L491 157L491 169L573 169L573 130L655 130L655 157L736 157L736 115L818 115L818 151L900 151L900 151L900 110L900 110L818 110L818 83L736 83L736 128L655 128L655 56L573 56L573 92L491 92L491 116L409 116L409 44L327 44L327 62L245 62L245 92L164 92L164 77L82 77L82 83L0 83Z" fill="#325eb9"></path><path d="M0 184L82 184L82 199L164 199L164 196L245 196L245 145L327 145L327 154L409 154L409 190L491 190L491 223L573 223L573 172L655 172L655 193L736 193L736 136L818 136L818 181L900 181L900 175L900 149L900 149L818 149L818 113L736 113L736 155L655 155L655 128L573 128L573 167L491 167L491 155L409 155L409 125L327 125L327 122L245 122L245 164L164 164L164 140L82 140L82 137L0 137Z" fill="#323e8f"></path><path d="M0 235L82 235L82 226L164 226L164 235L245 235L245 169L327 169L327 193L409 193L409 223L491 223L491 250L573 250L573 190L655 190L655 232L736 232L736 157L818 157L818 229L900 229L900 199L900 173L900 179L818 179L818 134L736 134L736 191L655 191L655 170L573 170L573 221L491 221L491 188L409 188L409 152L327 152L327 143L245 143L245 194L164 194L164 197L82 197L82 182L0 182Z" fill="#2b2067"></path><path d="M0 301L82 301L82 301L164 301L164 301L245 301L245 301L327 301L327 301L409 301L409 301L491 301L491 301L573 301L573 301L655 301L655 301L736 301L736 301L818 301L818 301L900 301L900 301L900 197L900 227L818 227L818 155L736 155L736 230L655 230L655 188L573 188L573 248L491 248L491 221L409 221L409 191L327 191L327 167L245 167L245 233L164 233L164 224L82 224L82 233L0 233Z" fill="#1e0141"></path></svg>